<svg xmlns="http://www.w3.org/2000/svg" xmlns:xlink="http://www.w3.org/1999/xlink" width="500" zoomAndPan="magnify" viewBox="0 0 375 374.999991" height="500" preserveAspectRatio="xMidYMid meet" version="1.2"><defs><clipPath id="47a1f749cf"><path d="M 55.777344 136.875 L 155.25 136.875 L 155.25 238.289062 L 55.777344 238.289062 Z M 55.777344 136.875 "/></clipPath><clipPath id="eb32945b3c"><path d="M 141.75 136.875 C 148.5 136.875 155.25 141.375 155.25 148.125 L 155.25 202.125 C 155.25 208.875 148.5 215.625 141.75 215.625 L 103.027344 215.625 L 78.277344 238.125 L 78.277344 215.625 L 69.277344 215.625 C 62.527344 215.625 55.777344 208.875 55.777344 202.125 L 55.777344 148.125 C 55.777344 141.375 62.527344 136.875 69.277344 136.875 Z M 141.75 136.875 "/></clipPath><clipPath id="790afa6f2c"><path d="M 0.777344 0.875 L 100.25 0.875 L 100.25 102.289062 L 0.777344 102.289062 Z M 0.777344 0.875 "/></clipPath><clipPath id="69744b6ef7"><path d="M 86.75 0.875 C 93.5 0.875 100.25 5.375 100.25 12.125 L 100.25 66.125 C 100.25 72.875 93.5 79.625 86.75 79.625 L 48.027344 79.625 L 23.277344 102.125 L 23.277344 79.625 L 14.277344 79.625 C 7.527344 79.625 0.777344 72.875 0.777344 66.125 L 0.777344 12.125 C 0.777344 5.375 7.527344 0.875 14.277344 0.875 Z M 86.75 0.875 "/></clipPath><clipPath id="4f977fda21"><rect x="0" width="101" y="0" height="103"/></clipPath><clipPath id="cbb4f20281"><path d="M 79.238281 154.070312 L 131.738281 154.070312 L 131.738281 195.320312 L 79.238281 195.320312 Z M 79.238281 154.070312 "/></clipPath></defs><g id="a77b7a6698"><g clip-rule="nonzero" clip-path="url(#47a1f749cf)"><g clip-rule="nonzero" clip-path="url(#eb32945b3c)"><g transform="matrix(1,0,0,1,55,136)"><g clip-path="url(#4f977fda21)"><g clip-rule="nonzero" clip-path="url(#790afa6f2c)"><g clip-rule="nonzero" clip-path="url(#69744b6ef7)"><path style=" stroke:none;fill-rule:nonzero;fill:#0e9f6e;fill-opacity:1;" d="M 0.777344 0.875 L 100.25 0.875 L 100.25 102.289062 L 0.777344 102.289062 Z M 0.777344 0.875 "/></g></g></g></g></g></g><g clip-rule="nonzero" clip-path="url(#cbb4f20281)"><path style=" stroke:none;fill-rule:nonzero;fill:#ffffff;fill-opacity:1;" d="M 129.46875 155.550781 L 129.144531 155.308594 C 128.085938 154.453125 126.789062 154.089844 125.566406 154.210938 C 124.269531 154.332031 123.089844 154.902344 122.234375 155.917969 L 111.261719 168.839844 L 104.761719 176.683594 L 100.007812 182.414062 L 96.753906 178.960938 L 94.925781 177.050781 L 88.503906 170.34375 C 87.570312 169.371094 86.351562 168.882812 85.050781 168.800781 C 83.832031 168.71875 82.53125 169.246094 81.597656 170.140625 L 81.269531 170.464844 C 79.28125 172.296875 79.238281 175.464844 81.066406 177.417969 L 87.40625 184.082031 L 89.238281 186.074219 L 96.550781 193.753906 C 97.40625 194.605469 98.542969 195.175781 99.640625 195.214844 C 99.722656 195.214844 99.722656 195.214844 99.761719 195.214844 C 99.84375 195.214844 99.882812 195.214844 100.007812 195.214844 C 100.007812 195.214844 100.007812 195.214844 100.085938 195.214844 C 100.289062 195.214844 100.453125 195.214844 100.695312 195.214844 C 101.996094 195.09375 103.175781 194.523438 104.027344 193.507812 L 114.921875 180.585938 L 119.1875 175.425781 L 130.078125 162.5 C 131.785156 160.429688 131.542969 157.339844 129.46875 155.550781 Z M 129.46875 155.550781 "/></g><g style="fill:#0e9f6e;fill-opacity:1;"><g transform="translate(178.234402, 178.821874)"><path style="stroke:none" d="M 17.515625 -10.953125 L 17.515625 -5.75 C 17.515625 -4.820312 17.816406 -4.164062 18.421875 -3.78125 C 19.035156 -3.394531 20.023438 -3.203125 21.390625 -3.203125 C 22.929688 -3.203125 24.4375 -3.242188 25.90625 -3.328125 C 27.382812 -3.421875 28.800781 -3.535156 30.15625 -3.671875 L 29.859375 0.921875 C 29.128906 0.960938 28.242188 1.003906 27.203125 1.046875 C 26.160156 1.097656 25.066406 1.132812 23.921875 1.15625 C 22.773438 1.175781 21.671875 1.1875 20.609375 1.1875 C 18.546875 1.1875 16.953125 0.957031 15.828125 0.5 C 14.703125 0.0507812 13.925781 -0.585938 13.5 -1.421875 C 13.070312 -2.265625 12.859375 -3.253906 12.859375 -4.390625 L 12.859375 -10.953125 L 7.3125 -10.953125 C 6.832031 -10.953125 6.222656 -10.929688 5.484375 -10.890625 C 4.753906 -10.859375 4.128906 -10.820312 3.609375 -10.78125 L 3.609375 -15.234375 C 4.078125 -15.210938 4.679688 -15.175781 5.421875 -15.125 C 6.160156 -15.082031 6.789062 -15.0625 7.3125 -15.0625 L 12.859375 -15.0625 L 12.859375 -20.84375 L 9.140625 -20.84375 C 7.941406 -20.84375 6.84375 -20.804688 5.84375 -20.734375 L 5.84375 -24.984375 C 6.34375 -24.960938 6.863281 -24.925781 7.40625 -24.875 C 7.957031 -24.832031 8.535156 -24.8125 9.140625 -24.8125 L 25.5 -24.8125 C 26.09375 -24.8125 26.65625 -24.828125 27.1875 -24.859375 C 27.71875 -24.898438 28.175781 -24.941406 28.5625 -24.984375 L 28.5625 -20.734375 C 28.125 -20.765625 27.65625 -20.789062 27.15625 -20.8125 C 26.664062 -20.832031 26.113281 -20.84375 25.5 -20.84375 L 17.515625 -20.84375 L 17.515625 -15.0625 L 27.78125 -15.0625 C 28.144531 -15.0625 28.675781 -15.078125 29.375 -15.109375 C 30.082031 -15.140625 30.648438 -15.171875 31.078125 -15.203125 L 31.109375 -10.84375 C 30.628906 -10.882812 30.066406 -10.910156 29.421875 -10.921875 C 28.773438 -10.941406 28.257812 -10.953125 27.875 -10.953125 Z M 17.515625 -10.953125 "/></g></g><g style="fill:#0e9f6e;fill-opacity:1;"><g transform="translate(213.658475, 178.821874)"><path style="stroke:none" d="M 29.546875 -12.515625 L 27.609375 -7.8125 C 26.453125 -8.425781 25.15625 -9.046875 23.71875 -9.671875 C 22.28125 -10.296875 20.828125 -10.882812 19.359375 -11.4375 C 17.898438 -12 16.554688 -12.484375 15.328125 -12.890625 L 15.328125 -3.265625 C 15.328125 -2.941406 15.34375 -2.488281 15.375 -1.90625 C 15.414062 -1.332031 15.457031 -0.738281 15.5 -0.125 C 15.550781 0.476562 15.597656 1.007812 15.640625 1.46875 L 10.34375 1.46875 C 10.445312 0.800781 10.523438 0.015625 10.578125 -0.890625 C 10.640625 -1.796875 10.671875 -2.585938 10.671875 -3.265625 L 10.671875 -22.78125 C 10.671875 -23.394531 10.640625 -24.085938 10.578125 -24.859375 C 10.523438 -25.628906 10.445312 -26.304688 10.34375 -26.890625 L 15.640625 -26.890625 C 15.566406 -26.304688 15.492188 -25.65625 15.421875 -24.9375 C 15.359375 -24.226562 15.328125 -23.507812 15.328125 -22.78125 L 15.328125 -17.78125 C 16.460938 -17.4375 17.691406 -17.046875 19.015625 -16.609375 C 20.347656 -16.171875 21.671875 -15.707031 22.984375 -15.21875 C 24.296875 -14.726562 25.523438 -14.25 26.671875 -13.78125 C 27.816406 -13.320312 28.773438 -12.898438 29.546875 -12.515625 Z M 29.546875 -12.515625 "/></g></g><g style="fill:#0e9f6e;fill-opacity:1;"><g transform="translate(249.082548, 178.821874)"><path style="stroke:none" d="M 23.53125 -26.796875 L 28.734375 -24.953125 C 28.503906 -24.585938 28.253906 -24.085938 27.984375 -23.453125 C 27.710938 -22.828125 27.492188 -22.320312 27.328125 -21.9375 C 26.835938 -20.570312 26.207031 -19.078125 25.4375 -17.453125 C 24.664062 -15.835938 23.769531 -14.25 22.75 -12.6875 C 24.238281 -11.457031 25.675781 -10.203125 27.0625 -8.921875 C 28.445312 -7.640625 29.707031 -6.398438 30.84375 -5.203125 L 27.328125 -1.296875 C 26.148438 -2.703125 24.941406 -4.003906 23.703125 -5.203125 C 22.472656 -6.398438 21.179688 -7.585938 19.828125 -8.765625 C 18.328125 -6.984375 16.5625 -5.175781 14.53125 -3.34375 C 12.5 -1.519531 10.046875 0.171875 7.171875 1.734375 L 3.265625 -1.765625 C 6.023438 -3.109375 8.453125 -4.609375 10.546875 -6.265625 C 12.648438 -7.929688 14.53125 -9.773438 16.1875 -11.796875 C 14.976562 -12.742188 13.59375 -13.789062 12.03125 -14.9375 C 10.46875 -16.082031 8.816406 -17.175781 7.078125 -18.21875 L 10 -21.71875 C 10.90625 -21.15625 11.878906 -20.523438 12.921875 -19.828125 C 13.960938 -19.140625 15.003906 -18.429688 16.046875 -17.703125 C 17.085938 -16.984375 18.0625 -16.285156 18.96875 -15.609375 C 19.832031 -16.960938 20.554688 -18.3125 21.140625 -19.65625 C 21.734375 -21.007812 22.257812 -22.34375 22.71875 -23.65625 C 22.875 -24.09375 23.023438 -24.613281 23.171875 -25.21875 C 23.316406 -25.832031 23.4375 -26.359375 23.53125 -26.796875 Z M 23.53125 -26.796875 "/></g></g><g style="fill:#0e9f6e;fill-opacity:1;"><g transform="translate(284.506622, 178.821874)"><path style="stroke:none" d="M 5.515625 1.5 L 1.359375 -1.265625 C 2.859375 -2.328125 4.078125 -3.582031 5.015625 -5.03125 C 5.953125 -6.476562 6.660156 -7.929688 7.140625 -9.390625 C 7.390625 -10.109375 7.578125 -11.015625 7.703125 -12.109375 C 7.828125 -13.210938 7.921875 -14.398438 7.984375 -15.671875 C 8.054688 -16.941406 8.097656 -18.195312 8.109375 -19.4375 C 8.117188 -20.6875 8.125 -21.820312 8.125 -22.84375 C 8.125 -23.53125 8.097656 -24.113281 8.046875 -24.59375 C 8.003906 -25.082031 7.925781 -25.53125 7.8125 -25.9375 L 12.8125 -25.9375 C 12.789062 -25.875 12.742188 -25.523438 12.671875 -24.890625 C 12.609375 -24.253906 12.578125 -23.582031 12.578125 -22.875 C 12.578125 -21.882812 12.566406 -20.726562 12.546875 -19.40625 C 12.523438 -18.09375 12.476562 -16.738281 12.40625 -15.34375 C 12.34375 -13.957031 12.242188 -12.644531 12.109375 -11.40625 C 11.972656 -10.164062 11.789062 -9.117188 11.5625 -8.265625 C 11.0625 -6.335938 10.296875 -4.550781 9.265625 -2.90625 C 8.234375 -1.257812 6.984375 0.207031 5.515625 1.5 Z M 19.921875 1.59375 L 17.109375 -0.75 C 17.171875 -1.0625 17.226562 -1.441406 17.28125 -1.890625 C 17.34375 -2.347656 17.375 -2.804688 17.375 -3.265625 L 17.375 -23.09375 C 17.375 -23.851562 17.332031 -24.515625 17.25 -25.078125 C 17.175781 -25.648438 17.128906 -25.960938 17.109375 -26.015625 L 22.171875 -26.015625 C 22.148438 -25.960938 22.101562 -25.644531 22.03125 -25.0625 C 21.96875 -24.488281 21.9375 -23.816406 21.9375 -23.046875 L 21.9375 -5.265625 C 22.863281 -5.671875 23.820312 -6.222656 24.8125 -6.921875 C 25.8125 -7.628906 26.789062 -8.453125 27.75 -9.390625 C 28.71875 -10.335938 29.578125 -11.351562 30.328125 -12.4375 L 32.953125 -8.703125 C 32.015625 -7.484375 30.890625 -6.28125 29.578125 -5.09375 C 28.265625 -3.914062 26.894531 -2.835938 25.46875 -1.859375 C 24.039062 -0.890625 22.691406 -0.078125 21.421875 0.578125 C 21.054688 0.753906 20.769531 0.921875 20.5625 1.078125 C 20.363281 1.242188 20.148438 1.414062 19.921875 1.59375 Z M 19.921875 1.59375 "/></g></g><g style="fill:#6b7280;fill-opacity:1;"><g transform="translate(176.770409, 202.043497)"><path style="stroke:none" d="M 1.09375 0 L 1.09375 -8.875 L 3.0625 -8.875 L 4.578125 -4.734375 C 4.671875 -4.453125 4.757812 -4.164062 4.84375 -3.875 C 4.9375 -3.582031 5.023438 -3.296875 5.109375 -3.015625 L 5.171875 -3.015625 C 5.265625 -3.296875 5.351562 -3.582031 5.4375 -3.875 C 5.519531 -4.164062 5.613281 -4.453125 5.71875 -4.734375 L 7.1875 -8.875 L 9.15625 -8.875 L 9.15625 0 L 7.53125 0 L 7.53125 -3.703125 C 7.53125 -3.984375 7.539062 -4.296875 7.5625 -4.640625 C 7.59375 -4.992188 7.625 -5.34375 7.65625 -5.6875 C 7.695312 -6.03125 7.726562 -6.34375 7.75 -6.625 L 7.703125 -6.625 L 6.984375 -4.53125 L 5.609375 -0.796875 L 4.59375 -0.796875 L 3.21875 -4.53125 L 2.515625 -6.625 L 2.453125 -6.625 C 2.492188 -6.34375 2.53125 -6.03125 2.5625 -5.6875 C 2.59375 -5.34375 2.617188 -4.992188 2.640625 -4.640625 C 2.671875 -4.296875 2.6875 -3.984375 2.6875 -3.703125 L 2.6875 0 Z M 1.09375 0 "/></g></g><g style="fill:#6b7280;fill-opacity:1;"><g transform="translate(187.018432, 202.043497)"><path style="stroke:none" d="M 3.75 0.171875 C 3.195312 0.171875 2.671875 0.0351562 2.171875 -0.234375 C 1.679688 -0.515625 1.285156 -0.921875 0.984375 -1.453125 C 0.679688 -1.984375 0.53125 -2.613281 0.53125 -3.34375 C 0.53125 -4.09375 0.679688 -4.726562 0.984375 -5.25 C 1.285156 -5.78125 1.679688 -6.1875 2.171875 -6.46875 C 2.671875 -6.75 3.195312 -6.890625 3.75 -6.890625 C 4.3125 -6.890625 4.835938 -6.75 5.328125 -6.46875 C 5.828125 -6.1875 6.226562 -5.78125 6.53125 -5.25 C 6.832031 -4.726562 6.984375 -4.09375 6.984375 -3.34375 C 6.984375 -2.613281 6.832031 -1.984375 6.53125 -1.453125 C 6.226562 -0.921875 5.828125 -0.515625 5.328125 -0.234375 C 4.835938 0.0351562 4.3125 0.171875 3.75 0.171875 Z M 3.75 -1.265625 C 4.207031 -1.265625 4.5625 -1.453125 4.8125 -1.828125 C 5.0625 -2.210938 5.1875 -2.71875 5.1875 -3.34375 C 5.1875 -3.988281 5.0625 -4.5 4.8125 -4.875 C 4.5625 -5.257812 4.207031 -5.453125 3.75 -5.453125 C 3.300781 -5.453125 2.953125 -5.257812 2.703125 -4.875 C 2.453125 -4.5 2.328125 -3.988281 2.328125 -3.34375 C 2.328125 -2.71875 2.453125 -2.210938 2.703125 -1.828125 C 2.953125 -1.453125 3.300781 -1.265625 3.75 -1.265625 Z M 3.75 -1.265625 "/></g></g><g style="fill:#6b7280;fill-opacity:1;"><g transform="translate(194.530448, 202.043497)"><path style="stroke:none" d="M 3.40625 0.171875 C 2.601562 0.171875 2.035156 -0.0546875 1.703125 -0.515625 C 1.367188 -0.984375 1.203125 -1.597656 1.203125 -2.359375 L 1.203125 -5.328125 L 0.25 -5.328125 L 0.25 -6.640625 L 1.28125 -6.71875 L 1.484375 -8.515625 L 2.96875 -8.515625 L 2.96875 -6.71875 L 4.625 -6.71875 L 4.625 -5.328125 L 2.96875 -5.328125 L 2.96875 -2.359375 C 2.96875 -1.597656 3.269531 -1.21875 3.875 -1.21875 C 3.988281 -1.21875 4.101562 -1.234375 4.21875 -1.265625 C 4.34375 -1.296875 4.445312 -1.332031 4.53125 -1.375 L 4.828125 -0.078125 C 4.648438 -0.0234375 4.441406 0.0234375 4.203125 0.078125 C 3.972656 0.140625 3.707031 0.171875 3.40625 0.171875 Z M 3.40625 0.171875 "/></g></g><g style="fill:#6b7280;fill-opacity:1;"><g transform="translate(199.57046, 202.043497)"><path style="stroke:none" d="M 3.75 0.171875 C 3.195312 0.171875 2.671875 0.0351562 2.171875 -0.234375 C 1.679688 -0.515625 1.285156 -0.921875 0.984375 -1.453125 C 0.679688 -1.984375 0.53125 -2.613281 0.53125 -3.34375 C 0.53125 -4.09375 0.679688 -4.726562 0.984375 -5.25 C 1.285156 -5.78125 1.679688 -6.1875 2.171875 -6.46875 C 2.671875 -6.75 3.195312 -6.890625 3.75 -6.890625 C 4.3125 -6.890625 4.835938 -6.75 5.328125 -6.46875 C 5.828125 -6.1875 6.226562 -5.78125 6.53125 -5.25 C 6.832031 -4.726562 6.984375 -4.09375 6.984375 -3.34375 C 6.984375 -2.613281 6.832031 -1.984375 6.53125 -1.453125 C 6.226562 -0.921875 5.828125 -0.515625 5.328125 -0.234375 C 4.835938 0.0351562 4.3125 0.171875 3.75 0.171875 Z M 3.75 -1.265625 C 4.207031 -1.265625 4.5625 -1.453125 4.8125 -1.828125 C 5.0625 -2.210938 5.1875 -2.71875 5.1875 -3.34375 C 5.1875 -3.988281 5.0625 -4.5 4.8125 -4.875 C 4.5625 -5.257812 4.207031 -5.453125 3.75 -5.453125 C 3.300781 -5.453125 2.953125 -5.257812 2.703125 -4.875 C 2.453125 -4.5 2.328125 -3.988281 2.328125 -3.34375 C 2.328125 -2.71875 2.453125 -2.210938 2.703125 -1.828125 C 2.953125 -1.453125 3.300781 -1.265625 3.75 -1.265625 Z M 3.75 -1.265625 "/></g></g><g style="fill:#6b7280;fill-opacity:1;"><g transform="translate(207.082476, 202.043497)"><path style="stroke:none" d="M 0.953125 0 L 0.953125 -6.71875 L 2.390625 -6.71875 L 2.515625 -5.8125 L 2.5625 -5.8125 C 2.832031 -6.113281 3.128906 -6.367188 3.453125 -6.578125 C 3.785156 -6.785156 4.175781 -6.890625 4.625 -6.890625 C 5.101562 -6.890625 5.488281 -6.785156 5.78125 -6.578125 C 6.082031 -6.378906 6.3125 -6.09375 6.46875 -5.71875 C 6.769531 -6.039062 7.085938 -6.316406 7.421875 -6.546875 C 7.765625 -6.773438 8.160156 -6.890625 8.609375 -6.890625 C 9.316406 -6.890625 9.835938 -6.648438 10.171875 -6.171875 C 10.515625 -5.691406 10.6875 -5.03125 10.6875 -4.1875 L 10.6875 0 L 8.921875 0 L 8.921875 -3.96875 C 8.921875 -4.488281 8.84375 -4.851562 8.6875 -5.0625 C 8.539062 -5.269531 8.304688 -5.375 7.984375 -5.375 C 7.609375 -5.375 7.179688 -5.125 6.703125 -4.625 L 6.703125 0 L 4.9375 0 L 4.9375 -3.96875 C 4.9375 -4.488281 4.859375 -4.851562 4.703125 -5.0625 C 4.546875 -5.269531 4.3125 -5.375 4 -5.375 C 3.613281 -5.375 3.179688 -5.125 2.703125 -4.625 L 2.703125 0 Z M 0.953125 0 "/></g></g><g style="fill:#6b7280;fill-opacity:1;"><g transform="translate(218.650495, 202.043497)"><path style="stroke:none" d="M 3.859375 0.171875 C 3.234375 0.171875 2.671875 0.03125 2.171875 -0.25 C 1.671875 -0.53125 1.269531 -0.929688 0.96875 -1.453125 C 0.675781 -1.984375 0.53125 -2.613281 0.53125 -3.34375 C 0.53125 -4.070312 0.675781 -4.703125 0.96875 -5.234375 C 1.269531 -5.765625 1.660156 -6.171875 2.140625 -6.453125 C 2.617188 -6.742188 3.125 -6.890625 3.65625 -6.890625 C 4.269531 -6.890625 4.785156 -6.75 5.203125 -6.46875 C 5.617188 -6.195312 5.929688 -5.816406 6.140625 -5.328125 C 6.359375 -4.847656 6.46875 -4.296875 6.46875 -3.671875 C 6.46875 -3.316406 6.441406 -3.050781 6.390625 -2.875 L 2.25 -2.875 C 2.320312 -2.320312 2.523438 -1.898438 2.859375 -1.609375 C 3.191406 -1.328125 3.609375 -1.1875 4.109375 -1.1875 C 4.390625 -1.1875 4.648438 -1.222656 4.890625 -1.296875 C 5.128906 -1.378906 5.367188 -1.5 5.609375 -1.65625 L 6.21875 -0.578125 C 5.882812 -0.347656 5.515625 -0.164062 5.109375 -0.03125 C 4.703125 0.101562 4.285156 0.171875 3.859375 0.171875 Z M 2.21875 -4.03125 L 4.953125 -4.03125 C 4.953125 -4.488281 4.847656 -4.847656 4.640625 -5.109375 C 4.429688 -5.378906 4.113281 -5.515625 3.6875 -5.515625 C 3.332031 -5.515625 3.015625 -5.390625 2.734375 -5.140625 C 2.453125 -4.898438 2.28125 -4.53125 2.21875 -4.03125 Z M 2.21875 -4.03125 "/></g></g><g style="fill:#6b7280;fill-opacity:1;"><g transform="translate(225.62251, 202.043497)"><path style="stroke:none" d="M 0.953125 0 L 0.953125 -6.71875 L 2.390625 -6.71875 L 2.515625 -5.53125 L 2.5625 -5.53125 C 2.800781 -5.96875 3.09375 -6.300781 3.4375 -6.53125 C 3.78125 -6.769531 4.125 -6.890625 4.46875 -6.890625 C 4.644531 -6.890625 4.789062 -6.875 4.90625 -6.84375 C 5.03125 -6.8125 5.144531 -6.78125 5.25 -6.75 L 4.9375 -5.21875 C 4.832031 -5.257812 4.722656 -5.285156 4.609375 -5.296875 C 4.503906 -5.316406 4.382812 -5.328125 4.25 -5.328125 C 3.988281 -5.328125 3.710938 -5.226562 3.421875 -5.03125 C 3.128906 -4.832031 2.890625 -4.492188 2.703125 -4.015625 L 2.703125 0 Z M 0.953125 0 "/></g></g><g style="fill:#6b7280;fill-opacity:1;"><g transform="translate(230.854519, 202.043497)"><path style="stroke:none" d="M 2.9375 0.171875 C 2.21875 0.171875 1.691406 -0.0664062 1.359375 -0.546875 C 1.035156 -1.023438 0.875 -1.679688 0.875 -2.515625 L 0.875 -6.71875 L 2.640625 -6.71875 L 2.640625 -2.75 C 2.640625 -2.226562 2.710938 -1.863281 2.859375 -1.65625 C 3.015625 -1.445312 3.253906 -1.34375 3.578125 -1.34375 C 3.859375 -1.34375 4.097656 -1.40625 4.296875 -1.53125 C 4.503906 -1.664062 4.71875 -1.882812 4.9375 -2.1875 L 4.9375 -6.71875 L 6.703125 -6.71875 L 6.703125 0 L 5.265625 0 L 5.140625 -0.953125 L 5.09375 -0.953125 C 4.800781 -0.609375 4.484375 -0.332031 4.140625 -0.125 C 3.804688 0.0703125 3.40625 0.171875 2.9375 0.171875 Z M 2.9375 0.171875 "/></g></g></g></svg>